<svg width="164" height="164" viewBox="0 0 164 159" fill="currentColor" xmlns="http://www.w3.org/2000/svg">
<path d="M142.8 152.1C153.293 152.1 161.8 143.593 161.8 133.1C161.8 122.607 153.293 114.1 142.8 114.1C132.306 114.1 123.8 122.607 123.8 133.1C123.8 143.593 132.306 152.1 142.8 152.1Z" stroke="white" stroke-miterlimit="10"/>
<path d="M143.9 155.1C154.393 155.1 162.9 146.593 162.9 136.1C162.9 125.607 154.393 117.1 143.9 117.1C133.406 117.1 124.9 125.607 124.9 136.1C124.9 146.593 133.406 155.1 143.9 155.1Z" stroke="white" stroke-miterlimit="10"/>
<path d="M142.1 157.8C152.594 157.8 161.1 149.293 161.1 138.8C161.1 128.307 152.594 119.8 142.1 119.8C131.607 119.8 123.1 128.307 123.1 138.8C123.1 149.293 131.607 157.8 142.1 157.8Z" stroke="white" stroke-miterlimit="10"/>
<path d="M139 158.1C149.493 158.1 158 149.593 158 139.1C158 128.607 149.493 120.1 139 120.1C128.507 120.1 120 128.607 120 139.1C120 149.593 128.507 158.1 139 158.1Z" stroke="white" stroke-miterlimit="10"/>
<path d="M136.5 156C146.993 156 155.5 147.493 155.5 137C155.5 126.507 146.993 118 136.5 118C126.007 118 117.5 126.507 117.5 137C117.5 147.493 126.007 156 136.5 156Z" stroke="white" stroke-miterlimit="10"/>
<path d="M134.2 153.7C144.693 153.7 153.2 145.193 153.2 134.7C153.2 124.207 144.693 115.7 134.2 115.7C123.707 115.7 115.2 124.207 115.2 134.7C115.2 145.193 123.707 153.7 134.2 153.7Z" stroke="white" stroke-miterlimit="10"/>
<path d="M131.8 151.4C142.293 151.4 150.8 142.893 150.8 132.4C150.8 121.907 142.293 113.4 131.8 113.4C121.306 113.4 112.8 121.907 112.8 132.4C112.8 142.893 121.306 151.4 131.8 151.4Z" stroke="white" stroke-miterlimit="10"/>
<path d="M129.5 149C139.993 149 148.5 140.493 148.5 130C148.5 119.507 139.993 111 129.5 111C119.007 111 110.5 119.507 110.5 130C110.5 140.493 119.007 149 129.5 149Z" stroke="white" stroke-miterlimit="10"/>
<path d="M127.2 146.7C137.693 146.7 146.2 138.193 146.2 127.7C146.2 117.207 137.693 108.7 127.2 108.7C116.707 108.7 108.2 117.207 108.2 127.7C108.2 138.193 116.707 146.7 127.2 146.7Z" stroke="white" stroke-miterlimit="10"/>
<path d="M124.9 144.4C135.393 144.4 143.9 135.893 143.9 125.4C143.9 114.907 135.393 106.4 124.9 106.4C114.406 106.4 105.9 114.907 105.9 125.4C105.9 135.893 114.406 144.4 124.9 144.4Z" stroke="white" stroke-miterlimit="10"/>
<path d="M122.6 142.1C133.094 142.1 141.6 133.593 141.6 123.1C141.6 112.607 133.094 104.1 122.6 104.1C112.107 104.1 103.6 112.607 103.6 123.1C103.6 133.593 112.107 142.1 122.6 142.1Z" stroke="white" stroke-miterlimit="10"/>
<path d="M120.2 139.8C130.693 139.8 139.2 131.293 139.2 120.8C139.2 110.307 130.693 101.8 120.2 101.8C109.707 101.8 101.2 110.307 101.2 120.8C101.2 131.293 109.707 139.8 120.2 139.8Z" stroke="white" stroke-miterlimit="10"/>
<path d="M117.9 137.4C128.393 137.4 136.9 128.893 136.9 118.4C136.9 107.907 128.393 99.4 117.9 99.4C107.407 99.4 98.8999 107.907 98.8999 118.4C98.8999 128.893 107.407 137.4 117.9 137.4Z" stroke="white" stroke-miterlimit="10"/>
<path d="M115.6 135.1C126.094 135.1 134.6 126.593 134.6 116.1C134.6 105.607 126.094 97.1 115.6 97.1C105.107 97.1 96.6001 105.607 96.6001 116.1C96.6001 126.593 105.107 135.1 115.6 135.1Z" stroke="white" stroke-miterlimit="10"/>
<path d="M113.3 132.8C123.793 132.8 132.3 124.293 132.3 113.8C132.3 103.307 123.793 94.8 113.3 94.8C102.807 94.8 94.3 103.307 94.3 113.8C94.3 124.293 102.807 132.8 113.3 132.8Z" stroke="white" stroke-miterlimit="10"/>
<path d="M111 130.5C121.493 130.5 130 121.993 130 111.5C130 101.007 121.493 92.5 111 92.5C100.507 92.5 92 101.007 92 111.5C92 121.993 100.507 130.5 111 130.5Z" stroke="white" stroke-miterlimit="10"/>
<path d="M108.6 128.2C119.094 128.2 127.6 119.693 127.6 109.2C127.6 98.7066 119.094 90.2 108.6 90.2C98.1067 90.2 89.6001 98.7066 89.6001 109.2C89.6001 119.693 98.1067 128.2 108.6 128.2Z" stroke="white" stroke-miterlimit="10"/>
<path d="M106.3 125.9C116.793 125.9 125.3 117.393 125.3 106.9C125.3 96.4066 116.793 87.9 106.3 87.9C95.8066 87.9 87.3 96.4066 87.3 106.9C87.3 117.393 95.8066 125.9 106.3 125.9Z" stroke="white" stroke-miterlimit="10"/>
<path d="M104.3 123.3C114.793 123.3 123.3 114.793 123.3 104.3C123.3 93.8066 114.793 85.3 104.3 85.3C93.8066 85.3 85.3 93.8066 85.3 104.3C85.3 114.793 93.8066 123.3 104.3 123.3Z" stroke="white" stroke-miterlimit="10"/>
<path d="M104.5 120.2C114.993 120.2 123.5 111.693 123.5 101.2C123.5 90.7066 114.993 82.2 104.5 82.2C94.0066 82.2 85.5 90.7066 85.5 101.2C85.5 111.693 94.0066 120.2 104.5 120.2Z" stroke="white" stroke-miterlimit="10"/>
<path d="M107.2 118.5C117.693 118.5 126.2 109.993 126.2 99.5C126.2 89.0066 117.693 80.5 107.2 80.5C96.7065 80.5 88.2 89.0066 88.2 99.5C88.2 109.993 96.7065 118.5 107.2 118.5Z" stroke="white" stroke-miterlimit="10"/>
<path d="M110.2 119.5C120.693 119.5 129.2 110.993 129.2 100.5C129.2 90.0066 120.693 81.5 110.2 81.5C99.7065 81.5 91.2 90.0066 91.2 100.5C91.2 110.993 99.7065 119.5 110.2 119.5Z" stroke="white" stroke-miterlimit="10"/>
<path d="M144.2 98.6C154.693 98.6 163.2 90.0934 163.2 79.6C163.2 69.1066 154.693 60.6 144.2 60.6C133.707 60.6 125.2 69.1066 125.2 79.6C125.2 90.0934 133.707 98.6 144.2 98.6Z" stroke="white" stroke-miterlimit="10"/>
<path d="M143.9 104.3C154.393 104.3 162.9 95.7934 162.9 85.3C162.9 74.8066 154.393 66.3 143.9 66.3C133.406 66.3 124.9 74.8066 124.9 85.3C124.9 95.7934 133.406 104.3 143.9 104.3Z" stroke="white" stroke-miterlimit="10"/>
<path d="M143.1 109.9C153.594 109.9 162.1 101.393 162.1 90.9C162.1 80.4066 153.594 71.9 143.1 71.9C132.607 71.9 124.1 80.4066 124.1 90.9C124.1 101.393 132.607 109.9 143.1 109.9Z" stroke="white" stroke-miterlimit="10"/>
<path d="M141.7 115.4C152.193 115.4 160.7 106.893 160.7 96.4C160.7 85.9066 152.193 77.4 141.7 77.4C131.207 77.4 122.7 85.9066 122.7 96.4C122.7 106.893 131.207 115.4 141.7 115.4Z" stroke="white" stroke-miterlimit="10"/>
<path d="M139.8 120.8C150.293 120.8 158.8 112.293 158.8 101.8C158.8 91.3066 150.293 82.8 139.8 82.8C129.306 82.8 120.8 91.3066 120.8 101.8C120.8 112.293 129.306 120.8 139.8 120.8Z" stroke="white" stroke-miterlimit="10"/>
<path d="M137.3 126C147.793 126 156.3 117.493 156.3 107C156.3 96.5066 147.793 88 137.3 88C126.806 88 118.3 96.5066 118.3 107C118.3 117.493 126.806 126 137.3 126Z" stroke="white" stroke-miterlimit="10"/>
<path d="M132.3 127.2C142.793 127.2 151.3 118.693 151.3 108.2C151.3 97.7066 142.793 89.2 132.3 89.2C121.806 89.2 113.3 97.7066 113.3 108.2C113.3 118.693 121.806 127.2 132.3 127.2Z" stroke="white" stroke-miterlimit="10"/>
<path d="M131.1 122.3C141.594 122.3 150.1 113.793 150.1 103.3C150.1 92.8066 141.594 84.3 131.1 84.3C120.607 84.3 112.1 92.8066 112.1 103.3C112.1 113.793 120.607 122.3 131.1 122.3Z" stroke="white" stroke-miterlimit="10"/>
<path d="M133.5 117C143.993 117 152.5 108.493 152.5 98C152.5 87.5066 143.993 79 133.5 79C123.007 79 114.5 87.5066 114.5 98C114.5 108.493 123.007 117 133.5 117Z" stroke="white" stroke-miterlimit="10"/>
<path d="M135.3 111.6C145.793 111.6 154.3 103.093 154.3 92.6C154.3 82.1066 145.793 73.6 135.3 73.6C124.806 73.6 116.3 82.1066 116.3 92.6C116.3 103.093 124.806 111.6 135.3 111.6Z" stroke="white" stroke-miterlimit="10"/>
<path d="M136.4 106.1C146.893 106.1 155.4 97.5934 155.4 87.1C155.4 76.6066 146.893 68.1 136.4 68.1C125.906 68.1 117.4 76.6066 117.4 87.1C117.4 97.5934 125.906 106.1 136.4 106.1Z" stroke="white" stroke-miterlimit="10"/>
<path d="M137 100.4C147.493 100.4 156 91.8934 156 81.4C156 70.9066 147.493 62.4 137 62.4C126.507 62.4 118 70.9066 118 81.4C118 91.8934 126.507 100.4 137 100.4Z" stroke="white" stroke-miterlimit="10"/>
<path d="M136.8 94.6C147.293 94.6 155.8 86.0934 155.8 75.6C155.8 65.1066 147.293 56.6 136.8 56.6C126.306 56.6 117.8 65.1066 117.8 75.6C117.8 86.0934 126.306 94.6 136.8 94.6Z" stroke="white" stroke-miterlimit="10"/>
<path d="M136.1 88.9C146.594 88.9 155.1 80.3934 155.1 69.9C155.1 59.4066 146.594 50.9 136.1 50.9C125.607 50.9 117.1 59.4066 117.1 69.9C117.1 80.3934 125.607 88.9 136.1 88.9Z" stroke="white" stroke-miterlimit="10"/>
<path d="M134.7 83.4C145.193 83.4 153.7 74.8934 153.7 64.4C153.7 53.9066 145.193 45.4 134.7 45.4C124.207 45.4 115.7 53.9066 115.7 64.4C115.7 74.8934 124.207 83.4 134.7 83.4Z" stroke="white" stroke-miterlimit="10"/>
<path d="M132.7 78.2C143.193 78.2 151.7 69.6934 151.7 59.2C151.7 48.7066 143.193 40.2 132.7 40.2C122.207 40.2 113.7 48.7066 113.7 59.2C113.7 69.6934 122.207 78.2 132.7 78.2Z" stroke="white" stroke-miterlimit="10"/>
<path d="M130.2 73.2C140.693 73.2 149.2 64.6934 149.2 54.2C149.2 43.7066 140.693 35.2 130.2 35.2C119.707 35.2 111.2 43.7066 111.2 54.2C111.2 64.6934 119.707 73.2 130.2 73.2Z" stroke="white" stroke-miterlimit="10"/>
<path d="M127.1 68.5C137.594 68.5 146.1 59.9934 146.1 49.5C146.1 39.0066 137.594 30.5 127.1 30.5C116.607 30.5 108.1 39.0066 108.1 49.5C108.1 59.9934 116.607 68.5 127.1 68.5Z" stroke="white" stroke-miterlimit="10"/>
<path d="M123.6 64.2C134.094 64.2 142.6 55.6934 142.6 45.2C142.6 34.7066 134.094 26.2 123.6 26.2C113.107 26.2 104.6 34.7066 104.6 45.2C104.6 55.6934 113.107 64.2 123.6 64.2Z" stroke="white" stroke-miterlimit="10"/>
<path d="M119.7 60.2C130.193 60.2 138.7 51.6934 138.7 41.2C138.7 30.7066 130.193 22.2 119.7 22.2C109.207 22.2 100.7 30.7066 100.7 41.2C100.7 51.6934 109.207 60.2 119.7 60.2Z" stroke="white" stroke-miterlimit="10"/>
<path d="M115.3 56.7C125.793 56.7 134.3 48.1934 134.3 37.7C134.3 27.2066 125.793 18.7 115.3 18.7C104.807 18.7 96.3 27.2066 96.3 37.7C96.3 48.1934 104.807 56.7 115.3 56.7Z" stroke="white" stroke-miterlimit="10"/>
<path d="M110.6 53.6C121.094 53.6 129.6 45.0934 129.6 34.6C129.6 24.1066 121.094 15.6 110.6 15.6C100.107 15.6 91.6001 24.1066 91.6001 34.6C91.6001 45.0934 100.107 53.6 110.6 53.6Z" stroke="white" stroke-miterlimit="10"/>
<path d="M105.6 51C116.094 51 124.6 42.4934 124.6 32C124.6 21.5066 116.094 13 105.6 13C95.1067 13 86.6001 21.5066 86.6001 32C86.6001 42.4934 95.1067 51 105.6 51Z" stroke="white" stroke-miterlimit="10"/>
<path d="M100.2 48.8C110.693 48.8 119.2 40.2934 119.2 29.8C119.2 19.3066 110.693 10.8 100.2 10.8C89.7065 10.8 81.2 19.3066 81.2 29.8C81.2 40.2934 89.7065 48.8 100.2 48.8Z" stroke="white" stroke-miterlimit="10"/>
<path d="M94.6001 47.3C105.094 47.3 113.6 38.7934 113.6 28.3C113.6 17.8066 105.094 9.29999 94.6001 9.29999C84.1067 9.29999 75.6001 17.8066 75.6001 28.3C75.6001 38.7934 84.1067 47.3 94.6001 47.3Z" stroke="white" stroke-miterlimit="10"/>
<path d="M88.7 46.2C99.1934 46.2 107.7 37.6934 107.7 27.2C107.7 16.7066 99.1934 8.20001 88.7 8.20001C78.2065 8.20001 69.7 16.7066 69.7 27.2C69.7 37.6934 78.2065 46.2 88.7 46.2Z" stroke="white" stroke-miterlimit="10"/>
<path d="M82.7 45.8C93.1934 45.8 101.7 37.2934 101.7 26.8C101.7 16.3066 93.1934 7.79999 82.7 7.79999C72.2065 7.79999 63.7 16.3066 63.7 26.8C63.7 37.2934 72.2065 45.8 82.7 45.8Z" stroke="white" stroke-miterlimit="10"/>
<path d="M76.6001 46.1C87.0935 46.1 95.6001 37.5934 95.6001 27.1C95.6001 16.6066 87.0935 8.09998 76.6001 8.09998C66.1067 8.09998 57.6001 16.6066 57.6001 27.1C57.6001 37.5934 66.1067 46.1 76.6001 46.1Z" stroke="white" stroke-miterlimit="10"/>
<path d="M70.7 46.9C81.1934 46.9 89.7 38.3934 89.7 27.9C89.7 17.4066 81.1934 8.90002 70.7 8.90002C60.2065 8.90002 51.7 17.4066 51.7 27.9C51.7 38.3934 60.2065 46.9 70.7 46.9Z" stroke="white" stroke-miterlimit="10"/>
<path d="M65 48.4C75.4934 48.4 84 39.8934 84 29.4C84 18.9066 75.4934 10.4 65 10.4C54.5066 10.4 46 18.9066 46 29.4C46 39.8934 54.5066 48.4 65 48.4Z" stroke="white" stroke-miterlimit="10"/>
<path d="M59.6001 50.3C70.0935 50.3 78.6001 41.7934 78.6001 31.3C78.6001 20.8066 70.0935 12.3 59.6001 12.3C49.1067 12.3 40.6001 20.8066 40.6001 31.3C40.6001 41.7934 49.1067 50.3 59.6001 50.3Z" stroke="white" stroke-miterlimit="10"/>
<path d="M54.3999 52.8C64.8933 52.8 73.3999 44.2934 73.3999 33.8C73.3999 23.3066 64.8933 14.8 54.3999 14.8C43.9065 14.8 35.3999 23.3066 35.3999 33.8C35.3999 44.2934 43.9065 52.8 54.3999 52.8Z" stroke="white" stroke-miterlimit="10"/>
<path d="M49.6001 55.8C60.0935 55.8 68.6001 47.2934 68.6001 36.8C68.6001 26.3066 60.0935 17.8 49.6001 17.8C39.1067 17.8 30.6001 26.3066 30.6001 36.8C30.6001 47.2934 39.1067 55.8 49.6001 55.8Z" stroke="white" stroke-miterlimit="10"/>
<path d="M45.2 59.2C55.6934 59.2 64.2 50.6934 64.2 40.2C64.2 29.7066 55.6934 21.2 45.2 21.2C34.7065 21.2 26.2 29.7066 26.2 40.2C26.2 50.6934 34.7065 59.2 45.2 59.2Z" stroke="white" stroke-miterlimit="10"/>
<path d="M41.1001 63.1C51.5935 63.1 60.1001 54.5934 60.1001 44.1C60.1001 33.6066 51.5935 25.1 41.1001 25.1C30.6067 25.1 22.1001 33.6066 22.1001 44.1C22.1001 54.5934 30.6067 63.1 41.1001 63.1Z" stroke="white" stroke-miterlimit="10"/>
<path d="M37.5 67.3C47.9934 67.3 56.5 58.7934 56.5 48.3C56.5 37.8066 47.9934 29.3 37.5 29.3C27.0066 29.3 18.5 37.8066 18.5 48.3C18.5 58.7934 27.0066 67.3 37.5 67.3Z" stroke="white" stroke-miterlimit="10"/>
<path d="M34.3 71.9C44.7935 71.9 53.3 63.3934 53.3 52.9C53.3 42.4066 44.7935 33.9 34.3 33.9C23.8066 33.9 15.3 42.4066 15.3 52.9C15.3 63.3934 23.8066 71.9 34.3 71.9Z" stroke="white" stroke-miterlimit="10"/>
<path d="M31.7 76.8C42.1934 76.8 50.7 68.2934 50.7 57.8C50.7 47.3066 42.1934 38.8 31.7 38.8C21.2065 38.8 12.7 47.3066 12.7 57.8C12.7 68.2934 21.2065 76.8 31.7 76.8Z" stroke="white" stroke-miterlimit="10"/>
<path d="M29.5 81.9C39.9934 81.9 48.5 73.3934 48.5 62.9C48.5 52.4066 39.9934 43.9 29.5 43.9C19.0066 43.9 10.5 52.4066 10.5 62.9C10.5 73.3934 19.0066 81.9 29.5 81.9Z" stroke="white" stroke-miterlimit="10"/>
<path d="M28 87.4C38.4934 87.4 47 78.8934 47 68.4C47 57.9066 38.4934 49.4 28 49.4C17.5066 49.4 9 57.9066 9 68.4C9 78.8934 17.5066 87.4 28 87.4Z" stroke="white" stroke-miterlimit="10"/>
<path d="M27 93C37.4934 93 46 84.4934 46 74C46 63.5066 37.4934 55 27 55C16.5066 55 8 63.5066 8 74C8 84.4934 16.5066 93 27 93Z" stroke="white" stroke-miterlimit="10"/>
<path d="M26.7 98.8C37.1934 98.8 45.7 90.2934 45.7 79.8C45.7 69.3066 37.1934 60.8 26.7 60.8C16.2065 60.8 7.69995 69.3066 7.69995 79.8C7.69995 90.2934 16.2065 98.8 26.7 98.8Z" stroke="white" stroke-miterlimit="10"/>
<path d="M27.1001 104.6C37.5935 104.6 46.1001 96.0934 46.1001 85.6C46.1001 75.1066 37.5935 66.6 27.1001 66.6C16.6067 66.6 8.1001 75.1066 8.1001 85.6C8.1001 96.0934 16.6067 104.6 27.1001 104.6Z" stroke="white" stroke-miterlimit="10"/>
<path d="M28.1001 110.2C38.5935 110.2 47.1001 101.693 47.1001 91.2C47.1001 80.7066 38.5935 72.2 28.1001 72.2C17.6067 72.2 9.1001 80.7066 9.1001 91.2C9.1001 101.693 17.6067 110.2 28.1001 110.2Z" stroke="white" stroke-miterlimit="10"/>
<path d="M29.7 115.6C40.1934 115.6 48.7 107.093 48.7 96.6C48.7 86.1066 40.1934 77.6 29.7 77.6C19.2065 77.6 10.7 86.1066 10.7 96.6C10.7 107.093 19.2065 115.6 29.7 115.6Z" stroke="white" stroke-miterlimit="10"/>
<path d="M31.8999 120.8C42.3933 120.8 50.8999 112.293 50.8999 101.8C50.8999 91.3066 42.3933 82.8 31.8999 82.8C21.4065 82.8 12.8999 91.3066 12.8999 101.8C12.8999 112.293 21.4065 120.8 31.8999 120.8Z" stroke="white" stroke-miterlimit="10"/>
<path d="M34.6001 125.6C45.0935 125.6 53.6001 117.093 53.6001 106.6C53.6001 96.1066 45.0935 87.6 34.6001 87.6C24.1067 87.6 15.6001 96.1066 15.6001 106.6C15.6001 117.093 24.1067 125.6 34.6001 125.6Z" stroke="white" stroke-miterlimit="10"/>
<path d="M37.8 130.2C48.2935 130.2 56.8 121.693 56.8 111.2C56.8 100.707 48.2935 92.2 37.8 92.2C27.3066 92.2 18.8 100.707 18.8 111.2C18.8 121.693 27.3066 130.2 37.8 130.2Z" stroke="white" stroke-miterlimit="10"/>
<path d="M41.3999 134.4C51.8933 134.4 60.3999 125.893 60.3999 115.4C60.3999 104.907 51.8933 96.4 41.3999 96.4C30.9065 96.4 22.3999 104.907 22.3999 115.4C22.3999 125.893 30.9065 134.4 41.3999 134.4Z" stroke="white" stroke-miterlimit="10"/>
<path d="M45.5 138.2C55.9934 138.2 64.5 129.693 64.5 119.2C64.5 108.707 55.9934 100.2 45.5 100.2C35.0066 100.2 26.5 108.707 26.5 119.2C26.5 129.693 35.0066 138.2 45.5 138.2Z" stroke="white" stroke-miterlimit="10"/>
<path d="M50 141.6C60.4934 141.6 69 133.093 69 122.6C69 112.107 60.4934 103.6 50 103.6C39.5066 103.6 31 112.107 31 122.6C31 133.093 39.5066 141.6 50 141.6Z" stroke="white" stroke-miterlimit="10"/>
<path d="M54.8 144.5C65.2935 144.5 73.8 135.993 73.8 125.5C73.8 115.007 65.2935 106.5 54.8 106.5C44.3066 106.5 35.8 115.007 35.8 125.5C35.8 135.993 44.3066 144.5 54.8 144.5Z" stroke="white" stroke-miterlimit="10"/>
<path d="M60 147C70.4934 147 79 138.493 79 128C79 117.507 70.4934 109 60 109C49.5066 109 41 117.507 41 128C41 138.493 49.5066 147 60 147Z" stroke="white" stroke-miterlimit="10"/>
<path d="M65.5 148.9C75.9934 148.9 84.5 140.393 84.5 129.9C84.5 119.407 75.9934 110.9 65.5 110.9C55.0066 110.9 46.5 119.407 46.5 129.9C46.5 140.393 55.0066 148.9 65.5 148.9Z" stroke="white" stroke-miterlimit="10"/>
<path d="M71.2 150.3C81.6934 150.3 90.2 141.793 90.2 131.3C90.2 120.807 81.6934 112.3 71.2 112.3C60.7065 112.3 52.2 120.807 52.2 131.3C52.2 141.793 60.7065 150.3 71.2 150.3Z" stroke="white" stroke-miterlimit="10"/>
<path d="M77.1001 151.1C87.5935 151.1 96.1001 142.593 96.1001 132.1C96.1001 121.607 87.5935 113.1 77.1001 113.1C66.6067 113.1 58.1001 121.607 58.1001 132.1C58.1001 142.593 66.6067 151.1 77.1001 151.1Z" stroke="white" stroke-miterlimit="10"/>
<path d="M83.1001 151.3C93.5935 151.3 102.1 142.793 102.1 132.3C102.1 121.807 93.5935 113.3 83.1001 113.3C72.6067 113.3 64.1001 121.807 64.1001 132.3C64.1001 142.793 72.6067 151.3 83.1001 151.3Z" stroke="white" stroke-miterlimit="10"/>
<path d="M88.8999 150.9C99.3933 150.9 107.9 142.393 107.9 131.9C107.9 121.407 99.3933 112.9 88.8999 112.9C78.4065 112.9 69.8999 121.407 69.8999 131.9C69.8999 142.393 78.4065 150.9 88.8999 150.9Z" stroke="white" stroke-miterlimit="10"/>
<path d="M94.5 149.9C104.993 149.9 113.5 141.393 113.5 130.9C113.5 120.407 104.993 111.9 94.5 111.9C84.0066 111.9 75.5 120.407 75.5 130.9C75.5 141.393 84.0066 149.9 94.5 149.9Z" stroke="white" stroke-miterlimit="10"/>
<path d="M99.8999 148.4C110.393 148.4 118.9 139.893 118.9 129.4C118.9 118.907 110.393 110.4 99.8999 110.4C89.4065 110.4 80.8999 118.907 80.8999 129.4C80.8999 139.893 89.4065 148.4 99.8999 148.4Z" stroke="white" stroke-miterlimit="10"/>
<path d="M105.2 146.3C115.693 146.3 124.2 137.793 124.2 127.3C124.2 116.807 115.693 108.3 105.2 108.3C94.7065 108.3 86.2 116.807 86.2 127.3C86.2 137.793 94.7065 146.3 105.2 146.3Z" stroke="white" stroke-miterlimit="10"/>
<path d="M110.6 146C121.094 146 129.6 137.493 129.6 127C129.6 116.507 121.094 108 110.6 108C100.107 108 91.6001 116.507 91.6001 127C91.6001 137.493 100.107 146 110.6 146Z" stroke="white" stroke-miterlimit="10"/>
<path d="M111.3 151.1C121.793 151.1 130.3 142.593 130.3 132.1C130.3 121.607 121.793 113.1 111.3 113.1C100.807 113.1 92.3 121.607 92.3 132.1C92.3 142.593 100.807 151.1 111.3 151.1Z" stroke="white" stroke-miterlimit="10"/>
<path d="M106.3 153.8C116.793 153.8 125.3 145.293 125.3 134.8C125.3 124.307 116.793 115.8 106.3 115.8C95.8066 115.8 87.3 124.307 87.3 134.8C87.3 145.293 95.8066 153.8 106.3 153.8Z" stroke="white" stroke-miterlimit="10"/>
<path d="M100.9 155.7C111.393 155.7 119.9 147.193 119.9 136.7C119.9 126.207 111.393 117.7 100.9 117.7C90.4065 117.7 81.8999 126.207 81.8999 136.7C81.8999 147.193 90.4065 155.7 100.9 155.7Z" stroke="white" stroke-miterlimit="10"/>
<path d="M95.3999 157.1C105.893 157.1 114.4 148.593 114.4 138.1C114.4 127.607 105.893 119.1 95.3999 119.1C84.9065 119.1 76.3999 127.607 76.3999 138.1C76.3999 148.593 84.9065 157.1 95.3999 157.1Z" stroke="white" stroke-miterlimit="10"/>
<path d="M89.8 158.1C100.293 158.1 108.8 149.593 108.8 139.1C108.8 128.607 100.293 120.1 89.8 120.1C79.3066 120.1 70.8 128.607 70.8 139.1C70.8 149.593 79.3066 158.1 89.8 158.1Z" stroke="white" stroke-miterlimit="10"/>
<path d="M84.1001 158.5C94.5935 158.5 103.1 149.993 103.1 139.5C103.1 129.007 94.5935 120.5 84.1001 120.5C73.6067 120.5 65.1001 129.007 65.1001 139.5C65.1001 149.993 73.6067 158.5 84.1001 158.5Z" stroke="white" stroke-miterlimit="10"/>
<path d="M78.1001 158.4C88.5935 158.4 97.1001 149.893 97.1001 139.4C97.1001 128.907 88.5935 120.4 78.1001 120.4C67.6067 120.4 59.1001 128.907 59.1001 139.4C59.1001 149.893 67.6067 158.4 78.1001 158.4Z" stroke="white" stroke-miterlimit="10"/>
<path d="M72.1001 157.8C82.5935 157.8 91.1001 149.293 91.1001 138.8C91.1001 128.307 82.5935 119.8 72.1001 119.8C61.6067 119.8 53.1001 128.307 53.1001 138.8C53.1001 149.293 61.6067 157.8 72.1001 157.8Z" stroke="white" stroke-miterlimit="10"/>
<path d="M66.3 156.7C76.7935 156.7 85.3 148.193 85.3 137.7C85.3 127.207 76.7935 118.7 66.3 118.7C55.8066 118.7 47.3 127.207 47.3 137.7C47.3 148.193 55.8066 156.7 66.3 156.7Z" stroke="white" stroke-miterlimit="10"/>
<path d="M60.8 155C71.2935 155 79.8 146.493 79.8 136C79.8 125.507 71.2935 117 60.8 117C50.3066 117 41.8 125.507 41.8 136C41.8 146.493 50.3066 155 60.8 155Z" stroke="white" stroke-miterlimit="10"/>
<path d="M55.3999 152.9C65.8933 152.9 74.3999 144.393 74.3999 133.9C74.3999 123.407 65.8933 114.9 55.3999 114.9C44.9065 114.9 36.3999 123.407 36.3999 133.9C36.3999 144.393 44.9065 152.9 55.3999 152.9Z" stroke="white" stroke-miterlimit="10"/>
<path d="M50.3 150.3C60.7935 150.3 69.3 141.793 69.3 131.3C69.3 120.807 60.7935 112.3 50.3 112.3C39.8066 112.3 31.3 120.807 31.3 131.3C31.3 141.793 39.8066 150.3 50.3 150.3Z" stroke="white" stroke-miterlimit="10"/>
<path d="M45.5 147.3C55.9934 147.3 64.5 138.793 64.5 128.3C64.5 117.807 55.9934 109.3 45.5 109.3C35.0066 109.3 26.5 117.807 26.5 128.3C26.5 138.793 35.0066 147.3 45.5 147.3Z" stroke="white" stroke-miterlimit="10"/>
<path d="M41.1001 143.9C51.5935 143.9 60.1001 135.393 60.1001 124.9C60.1001 114.407 51.5935 105.9 41.1001 105.9C30.6067 105.9 22.1001 114.407 22.1001 124.9C22.1001 135.393 30.6067 143.9 41.1001 143.9Z" stroke="white" stroke-miterlimit="10"/>
<path d="M36.8999 140.1C47.3933 140.1 55.8999 131.593 55.8999 121.1C55.8999 110.607 47.3933 102.1 36.8999 102.1C26.4065 102.1 17.8999 110.607 17.8999 121.1C17.8999 131.593 26.4065 140.1 36.8999 140.1Z" stroke="white" stroke-miterlimit="10"/>
<path d="M33.2 136C43.6934 136 52.2 127.493 52.2 117C52.2 106.507 43.6934 98 33.2 98C22.7065 98 14.2 106.507 14.2 117C14.2 127.493 22.7065 136 33.2 136Z" stroke="white" stroke-miterlimit="10"/>
<path d="M29.8 131.5C40.2935 131.5 48.8 122.993 48.8 112.5C48.8 102.007 40.2935 93.5 29.8 93.5C19.3066 93.5 10.8 102.007 10.8 112.5C10.8 122.993 19.3066 131.5 29.8 131.5Z" stroke="white" stroke-miterlimit="10"/>
<path d="M26.8999 126.8C37.3933 126.8 45.8999 118.293 45.8999 107.8C45.8999 97.3066 37.3933 88.8 26.8999 88.8C16.4065 88.8 7.8999 97.3066 7.8999 107.8C7.8999 118.293 16.4065 126.8 26.8999 126.8Z" stroke="white" stroke-miterlimit="10"/>
<path d="M24.3999 121.8C34.8933 121.8 43.3999 113.293 43.3999 102.8C43.3999 92.3066 34.8933 83.8 24.3999 83.8C13.9065 83.8 5.3999 92.3066 5.3999 102.8C5.3999 113.293 13.9065 121.8 24.3999 121.8Z" stroke="white" stroke-miterlimit="10"/>
<path d="M22.3999 116.6C32.8933 116.6 41.3999 108.093 41.3999 97.6C41.3999 87.1066 32.8933 78.6 22.3999 78.6C11.9065 78.6 3.3999 87.1066 3.3999 97.6C3.3999 108.093 11.9065 116.6 22.3999 116.6Z" stroke="white" stroke-miterlimit="10"/>
<path d="M20.8999 111.1C31.3933 111.1 39.8999 102.593 39.8999 92.1C39.8999 81.6066 31.3933 73.1 20.8999 73.1C10.4065 73.1 1.8999 81.6066 1.8999 92.1C1.8999 102.593 10.4065 111.1 20.8999 111.1Z" stroke="white" stroke-miterlimit="10"/>
<path d="M19.8999 105.5C30.3933 105.5 38.8999 96.9934 38.8999 86.5C38.8999 76.0066 30.3933 67.5 19.8999 67.5C9.40649 67.5 0.899902 76.0066 0.899902 86.5C0.899902 96.9934 9.40649 105.5 19.8999 105.5Z" stroke="white" stroke-miterlimit="10"/>
<path d="M19.5 99.7C29.9934 99.7 38.5 91.1934 38.5 80.7C38.5 70.2066 29.9934 61.7 19.5 61.7C9.00659 61.7 0.5 70.2066 0.5 80.7C0.5 91.1934 9.00659 99.7 19.5 99.7Z" stroke="white" stroke-miterlimit="10"/>
<path d="M19.7 93.8C30.1934 93.8 38.7 85.2934 38.7 74.8C38.7 64.3066 30.1934 55.8 19.7 55.8C9.20654 55.8 0.699951 64.3066 0.699951 74.8C0.699951 85.2934 9.20654 93.8 19.7 93.8Z" stroke="white" stroke-miterlimit="10"/>
<path d="M20.5 88.1C30.9934 88.1 39.5 79.5934 39.5 69.1C39.5 58.6066 30.9934 50.1 20.5 50.1C10.0066 50.1 1.5 58.6066 1.5 69.1C1.5 79.5934 10.0066 88.1 20.5 88.1Z" stroke="white" stroke-miterlimit="10"/>
<path d="M21.8 82.6C32.2935 82.6 40.8 74.0934 40.8 63.6C40.8 53.1066 32.2935 44.6 21.8 44.6C11.3066 44.6 2.80005 53.1066 2.80005 63.6C2.80005 74.0934 11.3066 82.6 21.8 82.6Z" stroke="white" stroke-miterlimit="10"/>
<path d="M23.6001 77.3C34.0935 77.3 42.6001 68.7934 42.6001 58.3C42.6001 47.8066 34.0935 39.3 23.6001 39.3C13.1067 39.3 4.6001 47.8066 4.6001 58.3C4.6001 68.7934 13.1067 77.3 23.6001 77.3Z" stroke="white" stroke-miterlimit="10"/>
<path d="M25.8999 72.2C36.3933 72.2 44.8999 63.6934 44.8999 53.2C44.8999 42.7066 36.3933 34.2 25.8999 34.2C15.4065 34.2 6.8999 42.7066 6.8999 53.2C6.8999 63.6934 15.4065 72.2 25.8999 72.2Z" stroke="white" stroke-miterlimit="10"/>
<path d="M28.6001 67.3C39.0935 67.3 47.6001 58.7934 47.6001 48.3C47.6001 37.8066 39.0935 29.3 28.6001 29.3C18.1067 29.3 9.6001 37.8066 9.6001 48.3C9.6001 58.7934 18.1067 67.3 28.6001 67.3Z" stroke="white" stroke-miterlimit="10"/>
<path d="M31.8 62.8C42.2935 62.8 50.8 54.2934 50.8 43.8C50.8 33.3066 42.2935 24.8 31.8 24.8C21.3066 24.8 12.8 33.3066 12.8 43.8C12.8 54.2934 21.3066 62.8 31.8 62.8Z" stroke="white" stroke-miterlimit="10"/>
<path d="M35.5 58.6C45.9934 58.6 54.5 50.0934 54.5 39.6C54.5 29.1066 45.9934 20.6 35.5 20.6C25.0066 20.6 16.5 29.1066 16.5 39.6C16.5 50.0934 25.0066 58.6 35.5 58.6Z" stroke="white" stroke-miterlimit="10"/>
<path d="M39.5 54.6C49.9934 54.6 58.5 46.0934 58.5 35.6C58.5 25.1066 49.9934 16.6 39.5 16.6C29.0066 16.6 20.5 25.1066 20.5 35.6C20.5 46.0934 29.0066 54.6 39.5 54.6Z" stroke="white" stroke-miterlimit="10"/>
<path d="M43.8 51.1C54.2935 51.1 62.8 42.5934 62.8 32.1C62.8 21.6066 54.2935 13.1 43.8 13.1C33.3066 13.1 24.8 21.6066 24.8 32.1C24.8 42.5934 33.3066 51.1 43.8 51.1Z" stroke="white" stroke-miterlimit="10"/>
<path d="M48.5 47.9C58.9934 47.9 67.5 39.3934 67.5 28.9C67.5 18.4066 58.9934 9.90002 48.5 9.90002C38.0066 9.90002 29.5 18.4066 29.5 28.9C29.5 39.3934 38.0066 47.9 48.5 47.9Z" stroke="white" stroke-miterlimit="10"/>
<path d="M53.5 45.2C63.9934 45.2 72.5 36.6934 72.5 26.2C72.5 15.7066 63.9934 7.20001 53.5 7.20001C43.0066 7.20001 34.5 15.7066 34.5 26.2C34.5 36.6934 43.0066 45.2 53.5 45.2Z" stroke="white" stroke-miterlimit="10"/>
<path d="M58.7 42.9C69.1934 42.9 77.7 34.3934 77.7 23.9C77.7 13.4066 69.1934 4.90002 58.7 4.90002C48.2065 4.90002 39.7 13.4066 39.7 23.9C39.7 34.3934 48.2065 42.9 58.7 42.9Z" stroke="white" stroke-miterlimit="10"/>
<path d="M64.2 41.1C74.6934 41.1 83.2 32.5934 83.2 22.1C83.2 11.6066 74.6934 3.09998 64.2 3.09998C53.7065 3.09998 45.2 11.6066 45.2 22.1C45.2 32.5934 53.7065 41.1 64.2 41.1Z" stroke="white" stroke-miterlimit="10"/>
<path d="M69.8999 39.7C80.3933 39.7 88.8999 31.1934 88.8999 20.7C88.8999 10.2066 80.3933 1.70001 69.8999 1.70001C59.4065 1.70001 50.8999 10.2066 50.8999 20.7C50.8999 31.1934 59.4065 39.7 69.8999 39.7Z" stroke="white" stroke-miterlimit="10"/>
<path d="M75.8 38.9C86.2935 38.9 94.8 30.3934 94.8 19.9C94.8 9.40661 86.2935 0.900024 75.8 0.900024C65.3066 0.900024 56.8 9.40661 56.8 19.9C56.8 30.3934 65.3066 38.9 75.8 38.9Z" stroke="white" stroke-miterlimit="10"/>
<path d="M81.8999 38.6C92.3933 38.6 100.9 30.0934 100.9 19.6C100.9 9.10657 92.3933 0.599976 81.8999 0.599976C71.4065 0.599976 62.8999 9.10657 62.8999 19.6C62.8999 30.0934 71.4065 38.6 81.8999 38.6Z" stroke="white" stroke-miterlimit="10"/>
</svg>
